<svg xmlns="http://www.w3.org/2000/svg" xmlns:xlink="http://www.w3.org/1999/xlink" width="500" zoomAndPan="magnify" viewBox="0 0 375 374.999991" height="500" preserveAspectRatio="xMidYMid meet" version="1.0"><defs><g/></defs><g fill="#ffffff" fill-opacity="1"><g transform="translate(19.62179, 288.013816)"><g><path d="M 317.296875 -57.578125 C 310.355469 -47.371094 301.78125 -38.792969 291.980469 -32.261719 C 282.179688 -25.320312 271.152344 -22.050781 258.902344 -22.050781 C 236.441406 -22.050781 220.109375 -28.992188 209.488281 -42.878906 C 199.28125 -57.171875 193.972656 -77.589844 193.972656 -104.132812 L 193.972656 -120.875 C 194.378906 -137.210938 196.421875 -150.277344 199.691406 -160.078125 C 199.691406 -160.078125 207.449219 -187.03125 236.851562 -197.238281 L 236.851562 -200.097656 C 235.21875 -200.507812 233.175781 -200.507812 231.132812 -200.507812 C 214.390625 -200.507812 199.28125 -197.648438 185.398438 -191.929688 C 181.3125 -189.890625 177.230469 -187.847656 173.144531 -185.804688 C 171.105469 -187.03125 169.0625 -188.664062 167.019531 -189.890625 C 158.445312 -194.789062 149.050781 -197.648438 138.433594 -199.28125 C 135.167969 -199.691406 131.902344 -199.691406 129.042969 -200.097656 L 129.042969 -131.492188 L 129.449219 -73.503906 L 129.859375 -22.460938 L 132.71875 -20.828125 L 147.011719 -28.585938 C 148.234375 -26.953125 149.460938 -25.726562 151.09375 -24.09375 C 160.078125 -15.109375 171.511719 -7.351562 185.804688 -2.042969 C 199.691406 3.265625 216.433594 6.125 236.035156 6.125 C 247.46875 6.125 257.675781 4.898438 266.660156 2.449219 C 275.644531 0 284.628906 -4.082031 293.203125 -8.984375 C 301.78125 -13.476562 309.128906 -19.191406 315.257812 -25.726562 C 321.789062 -32.667969 327.507812 -39.609375 332 -46.960938 Z M 251.960938 -165.796875 C 253.59375 -160.488281 255.226562 -153.953125 256.042969 -145.785156 C 256.859375 -137.210938 257.269531 -129.449219 257.269531 -121.691406 L 210.308594 -120.875 L 210.308594 -104.132812 L 326.691406 -104.132812 L 326.691406 -117.199219 C 326.691406 -128.226562 325.058594 -138.84375 321.789062 -149.050781 C 318.113281 -158.851562 312.804688 -167.835938 305.457031 -175.1875 C 297.695312 -182.945312 287.894531 -189.070312 276.054688 -193.5625 C 273.601562 -194.789062 271.152344 -195.199219 268.292969 -196.015625 C 267.476562 -196.015625 253.183594 -191.523438 242.976562 -182.539062 L 243.382812 -178.863281 C 247.058594 -176.003906 249.511719 -171.511719 251.960938 -165.796875 Z M 92.699219 -113.117188 C 75.957031 -108.214844 62.070312 -103.722656 50.230469 -99.640625 C 44.101562 -97.191406 38.386719 -94.738281 33.078125 -91.882812 C 27.769531 -89.023438 23.277344 -85.757812 19.601562 -81.671875 C 15.109375 -76.773438 11.84375 -71.464844 9.390625 -65.746094 C 6.941406 -59.621094 6.125 -52.679688 6.125 -44.101562 C 6.125 -28.992188 11.433594 -17.152344 22.050781 -8.167969 C 32.667969 0.816406 45.738281 5.308594 60.847656 5.308594 C 71.054688 5.308594 79.222656 4.492188 84.941406 2.859375 C 90.65625 1.632812 96.375 -0.816406 102.5 -3.675781 C 107.398438 -5.71875 111.890625 -8.574219 115.976562 -11.433594 C 116.792969 -12.25 117.609375 -13.066406 118.425781 -13.476562 L 118.425781 -28.175781 L 115.566406 -29.808594 C 110.667969 -26.953125 104.949219 -25.320312 98.007812 -25.320312 C 91.066406 -25.320312 85.347656 -27.769531 80.449219 -32.261719 C 75.957031 -36.753906 73.503906 -44.511719 73.503906 -54.71875 C 73.503906 -62.480469 75.140625 -69.011719 77.589844 -74.730469 C 80.449219 -80.449219 84.53125 -84.941406 89.023438 -88.613281 C 93.921875 -92.289062 99.640625 -95.558594 106.992188 -98.824219 C 110.667969 -100.457031 114.75 -102.089844 118.425781 -103.722656 L 118.425781 -117.609375 L 114.339844 -119.648438 C 108.214844 -117.609375 101.273438 -115.566406 92.699219 -113.117188 Z M 50.636719 -119.648438 C 69.011719 -119.648438 84.121094 -134.761719 84.121094 -153.136719 C 84.121094 -153.542969 83.714844 -153.953125 83.714844 -153.953125 L 84.121094 -153.953125 C 84.121094 -184.171875 117.199219 -191.523438 117.199219 -191.523438 L 117.199219 -198.054688 L 113.117188 -200.507812 C 54.71875 -199.691406 30.628906 -180.089844 30.628906 -180.089844 L 31.035156 -180.089844 C 22.460938 -173.960938 17.152344 -164.160156 17.152344 -153.136719 C 17.152344 -134.761719 32.261719 -119.648438 50.636719 -119.648438 Z M 50.636719 -119.648438 "/></g></g></g></svg>