<svg xmlns="http://www.w3.org/2000/svg" xmlns:xlink="http://www.w3.org/1999/xlink" width="500" zoomAndPan="magnify" viewBox="0 0 375 374.999991" height="500" preserveAspectRatio="xMidYMid meet" version="1.0"><defs><g/></defs><g fill="#ccbea2" fill-opacity="1"><g transform="translate(19.62179, 288.318019)"><g><path d="M 317.300781 -57.578125 C 310.359375 -47.371094 301.785156 -38.792969 291.984375 -32.261719 C 282.183594 -25.320312 271.15625 -22.050781 258.90625 -22.050781 C 236.445312 -22.050781 220.109375 -28.992188 209.492188 -42.878906 C 199.285156 -57.171875 193.972656 -77.589844 193.972656 -104.132812 L 193.972656 -120.875 C 194.382812 -137.210938 196.425781 -150.277344 199.691406 -160.078125 C 199.691406 -160.078125 207.449219 -187.03125 236.851562 -197.242188 L 236.851562 -200.101562 C 235.21875 -200.507812 233.179688 -200.507812 231.136719 -200.507812 C 214.394531 -200.507812 199.285156 -197.648438 185.398438 -191.933594 C 181.316406 -189.890625 177.230469 -187.847656 173.148438 -185.808594 C 171.105469 -187.03125 169.0625 -188.664062 167.023438 -189.890625 C 158.445312 -194.792969 149.054688 -197.648438 138.4375 -199.285156 C 135.167969 -199.691406 131.902344 -199.691406 129.042969 -200.101562 L 129.042969 -131.496094 L 129.453125 -73.507812 L 129.859375 -22.460938 L 132.71875 -20.828125 L 147.011719 -28.585938 C 148.238281 -26.953125 149.460938 -25.726562 151.097656 -24.09375 C 160.078125 -15.109375 171.515625 -7.351562 185.808594 -2.042969 C 199.691406 3.265625 216.433594 6.125 236.035156 6.125 C 247.46875 6.125 257.679688 4.902344 266.664062 2.449219 C 275.648438 0 284.632812 -4.082031 293.207031 -8.984375 C 301.785156 -13.476562 309.132812 -19.191406 315.257812 -25.726562 C 321.792969 -32.667969 327.511719 -39.613281 332.003906 -46.960938 Z M 251.960938 -165.796875 C 253.597656 -160.488281 255.230469 -153.953125 256.046875 -145.789062 C 256.863281 -137.210938 257.273438 -129.453125 257.273438 -121.695312 L 210.308594 -120.875 L 210.308594 -104.132812 L 326.695312 -104.132812 L 326.695312 -117.203125 C 326.695312 -128.226562 325.058594 -138.84375 321.792969 -149.054688 C 318.117188 -158.855469 312.808594 -167.839844 305.457031 -175.191406 C 297.699219 -182.949219 287.898438 -189.074219 276.054688 -193.566406 C 273.605469 -194.792969 271.15625 -195.199219 268.296875 -196.015625 C 267.480469 -196.015625 253.1875 -191.523438 242.980469 -182.539062 L 243.386719 -178.863281 C 247.0625 -176.007812 249.511719 -171.515625 251.960938 -165.796875 Z M 92.699219 -113.117188 C 75.957031 -108.21875 62.070312 -103.726562 50.230469 -99.640625 C 44.105469 -97.191406 38.386719 -94.742188 33.078125 -91.882812 C 27.769531 -89.023438 23.277344 -85.757812 19.601562 -81.671875 C 15.109375 -76.773438 11.84375 -71.464844 9.390625 -65.746094 C 6.941406 -59.621094 6.125 -52.679688 6.125 -44.105469 C 6.125 -28.992188 11.433594 -17.152344 22.050781 -8.167969 C 32.667969 0.816406 45.738281 5.308594 60.847656 5.308594 C 71.054688 5.308594 79.222656 4.492188 84.941406 2.859375 C 90.65625 1.632812 96.375 -0.816406 102.5 -3.675781 C 107.402344 -5.71875 111.894531 -8.574219 115.976562 -11.433594 C 116.792969 -12.25 117.609375 -13.066406 118.425781 -13.476562 L 118.425781 -28.175781 L 115.566406 -29.8125 C 110.667969 -26.953125 104.949219 -25.320312 98.007812 -25.320312 C 91.066406 -25.320312 85.347656 -27.769531 80.449219 -32.261719 C 75.957031 -36.753906 73.507812 -44.511719 73.507812 -54.722656 C 73.507812 -62.480469 75.140625 -69.015625 77.589844 -74.730469 C 80.449219 -80.449219 84.53125 -84.941406 89.023438 -88.617188 C 93.925781 -92.292969 99.640625 -95.558594 106.992188 -98.824219 C 110.667969 -100.457031 114.75 -102.09375 118.425781 -103.726562 L 118.425781 -117.609375 L 114.34375 -119.652344 C 108.21875 -117.609375 101.273438 -115.566406 92.699219 -113.117188 Z M 50.636719 -119.652344 C 69.015625 -119.652344 84.125 -134.761719 84.125 -153.136719 C 84.125 -153.546875 83.714844 -153.953125 83.714844 -153.953125 L 84.125 -153.953125 C 84.125 -184.171875 117.203125 -191.523438 117.203125 -191.523438 L 117.203125 -198.058594 L 113.117188 -200.507812 C 54.722656 -199.691406 30.628906 -180.089844 30.628906 -180.089844 L 31.035156 -180.089844 C 22.460938 -173.964844 17.152344 -164.164062 17.152344 -153.136719 C 17.152344 -134.761719 32.261719 -119.652344 50.636719 -119.652344 Z M 50.636719 -119.652344 "/></g></g></g></svg>